<svg xmlns="http://www.w3.org/2000/svg" width="1200" height="420" viewBox="0 0 1200 420" role="img" aria-labelledby="title desc">
  <title id="title">Semi-Pervault MCP pixel memory banner</title>
  <desc id="desc">Animated pixel-art memory pipeline from local agent tools to SQLite memory.</desc>
  <defs>
    <linearGradient id="bg" x1="0" x2="1" y1="0" y2="1">
      <stop offset="0" stop-color="#07111f"/>
      <stop offset="0.46" stop-color="#0f1b2c"/>
      <stop offset="1" stop-color="#151023"/>
    </linearGradient>
    <linearGradient id="panel" x1="0" x2="1">
      <stop offset="0" stop-color="#13243b"/>
      <stop offset="1" stop-color="#1b1835"/>
    </linearGradient>
    <filter id="glow" x="-40%" y="-40%" width="180%" height="180%">
      <feGaussianBlur stdDeviation="4" result="blur"/>
      <feMerge>
        <feMergeNode in="blur"/>
        <feMergeNode in="SourceGraphic"/>
      </feMerge>
    </filter>
    <style>
      .label {
        font-family: ui-monospace, SFMono-Regular, Menlo, Consolas, "Liberation Mono", monospace;
        font-size: 22px;
        fill: #dbeafe;
        letter-spacing: 2px;
      }
      .small {
        font-family: ui-monospace, SFMono-Regular, Menlo, Consolas, "Liberation Mono", monospace;
        font-size: 15px;
        fill: #93a4bd;
        letter-spacing: 1px;
      }
      .title {
        font-family: ui-monospace, SFMono-Regular, Menlo, Consolas, "Liberation Mono", monospace;
        font-size: 54px;
        font-weight: 800;
        fill: #f8fafc;
        letter-spacing: 2px;
      }
      .subtitle {
        font-family: ui-monospace, SFMono-Regular, Menlo, Consolas, "Liberation Mono", monospace;
        font-size: 20px;
        fill: #b6c6dd;
      }
      .tile { shape-rendering: crispEdges; }
      .pulse {
        animation: pulse 2.6s ease-in-out infinite;
        transform-origin: center;
      }
      .pulse.two { animation-delay: .4s; }
      .pulse.three { animation-delay: .8s; }
      .spark {
        animation: travel 4.8s linear infinite;
        filter: url(#glow);
      }
      .spark.two { animation-delay: 1.2s; }
      .spark.three { animation-delay: 2.4s; }
      .cursor {
        animation: blink 1.1s steps(2, end) infinite;
      }
      @keyframes pulse {
        0%, 100% { opacity: .55; transform: scale(1); }
        50% { opacity: 1; transform: scale(1.04); }
      }
      @keyframes blink {
        0%, 45% { opacity: 1; }
        46%, 100% { opacity: .12; }
      }
      @keyframes travel {
        0% { transform: translate(0, 0); opacity: 0; }
        8% { opacity: 1; }
        30% { transform: translate(210px, 0); opacity: 1; }
        55% { transform: translate(410px, 0); opacity: 1; }
        78% { transform: translate(610px, 0); opacity: 1; }
        100% { transform: translate(780px, 0); opacity: 0; }
      }
      @media (prefers-reduced-motion: reduce) {
        .pulse, .spark, .cursor { animation: none; }
      }
    </style>
  </defs>

  <rect width="1200" height="420" rx="0" fill="url(#bg)"/>

  <g opacity=".18">
    <rect class="tile" x="34" y="42" width="10" height="10" fill="#38bdf8"/>
    <rect class="tile" x="62" y="92" width="10" height="10" fill="#a78bfa"/>
    <rect class="tile" x="108" y="56" width="10" height="10" fill="#34d399"/>
    <rect class="tile" x="1032" y="58" width="10" height="10" fill="#38bdf8"/>
    <rect class="tile" x="1098" y="112" width="10" height="10" fill="#fbbf24"/>
    <rect class="tile" x="1140" y="66" width="10" height="10" fill="#a78bfa"/>
    <rect class="tile" x="174" y="338" width="10" height="10" fill="#f472b6"/>
    <rect class="tile" x="1010" y="322" width="10" height="10" fill="#34d399"/>
  </g>

  <rect x="70" y="68" width="1060" height="284" fill="none" stroke="#253856" stroke-width="4"/>
  <rect x="84" y="82" width="1032" height="256" fill="none" stroke="#172842" stroke-width="2"/>

  <text x="112" y="147" class="small">LOCAL-FIRST MEMORY LAYER</text>
  <text x="112" y="211" class="title">Semi-Pervault MCP<tspan class="cursor">_</tspan></text>
  <text x="114" y="254" class="subtitle">private long-term memory for AI agents, backed by SQLite</text>

  <g transform="translate(118 298)">
    <rect class="tile pulse" x="0" y="0" width="32" height="32" fill="#38bdf8"/>
    <rect class="tile pulse two" x="48" y="0" width="32" height="32" fill="#34d399"/>
    <rect class="tile pulse three" x="96" y="0" width="32" height="32" fill="#a78bfa"/>
    <text x="150" y="23" class="small">store -> retrieve -> explain</text>
  </g>

  <g transform="translate(728 126)">
    <rect class="tile" x="0" y="0" width="110" height="90" fill="url(#panel)" stroke="#335071" stroke-width="3"/>
    <rect class="tile" x="18" y="20" width="16" height="16" fill="#38bdf8"/>
    <rect class="tile" x="44" y="20" width="16" height="16" fill="#34d399"/>
    <rect class="tile" x="70" y="20" width="16" height="16" fill="#a78bfa"/>
    <rect class="tile" x="18" y="48" width="68" height="10" fill="#5b708c"/>
    <text x="8" y="124" class="small">MCP</text>
  </g>

  <g transform="translate(890 126)">
    <rect class="tile" x="0" y="0" width="110" height="90" fill="url(#panel)" stroke="#335071" stroke-width="3"/>
    <rect class="tile" x="22" y="18" width="66" height="14" fill="#fbbf24"/>
    <rect class="tile" x="22" y="42" width="66" height="14" fill="#38bdf8"/>
    <rect class="tile" x="22" y="66" width="66" height="14" fill="#34d399"/>
    <text x="-2" y="124" class="small">daemon</text>
  </g>

  <g transform="translate(1050 126)">
    <rect class="tile" x="0" y="0" width="70" height="90" fill="url(#panel)" stroke="#335071" stroke-width="3"/>
    <rect class="tile" x="14" y="16" width="42" height="10" fill="#94a3b8"/>
    <rect class="tile" x="14" y="36" width="42" height="10" fill="#94a3b8"/>
    <rect class="tile" x="14" y="56" width="42" height="10" fill="#94a3b8"/>
    <rect class="tile" x="14" y="76" width="42" height="10" fill="#94a3b8"/>
    <text x="-2" y="124" class="small">SQLite</text>
  </g>

  <g transform="translate(765 171)">
    <rect class="tile spark" x="0" y="0" width="12" height="12" fill="#f8fafc"/>
    <rect class="tile spark two" x="0" y="18" width="12" height="12" fill="#38bdf8"/>
    <rect class="tile spark three" x="0" y="36" width="12" height="12" fill="#34d399"/>
  </g>

  <g opacity=".48">
    <rect class="tile" x="842" y="166" width="32" height="6" fill="#5b708c"/>
    <rect class="tile" x="1004" y="166" width="32" height="6" fill="#5b708c"/>
    <rect class="tile" x="842" y="190" width="32" height="6" fill="#5b708c"/>
    <rect class="tile" x="1004" y="190" width="32" height="6" fill="#5b708c"/>
  </g>
</svg>
